<?xml version="1.0" encoding="UTF-8"?>
<svg version="1.1" xmlns="http://www.w3.org/2000/svg" width="858" height="858">
<path d="M0 0 C1.1925943 -0.00696899 2.3851886 -0.01393799 3.61392212 -0.02111816 C7.44186976 -0.03842244 11.26967113 -0.04483793 15.09765625 -0.046875 C16.40249969 -0.04788208 17.70734314 -0.04888916 19.05172729 -0.04992676 C37.64208828 -0.04019845 55.76064299 0.39015164 74.16015625 3.203125 C76.23026661 3.48585901 78.30058227 3.76709365 80.37109375 4.046875 C160.56851622 15.39420429 236.03844899 51.49790951 297.16015625 104.203125 C297.876875 104.81800781 298.59359375 105.43289062 299.33203125 106.06640625 C313.02893089 117.92384623 326.46879669 130.33545176 338.16015625 144.203125 C339.00320313 145.15703125 339.84625 146.1109375 340.71484375 147.09375 C353.7017462 161.84327094 365.38376061 177.7768949 376.16015625 194.203125 C376.89733887 195.32364258 376.89733887 195.32364258 377.64941406 196.46679688 C418.82209881 259.61381306 445.06483749 337.27316457 445.36328125 413.04296875 C445.37373474 414.8318602 445.37373474 414.8318602 445.38439941 416.65689087 C445.40170369 420.48483851 445.40811918 424.31263988 445.41015625 428.140625 C445.41116333 429.44546844 445.41217041 430.75031189 445.41320801 432.09469604 C445.4034797 450.68505703 444.97312961 468.80361174 442.16015625 487.203125 C441.87742224 489.27323536 441.5961876 491.34355102 441.31640625 493.4140625 C429.96907696 573.61148497 393.86537174 649.08141774 341.16015625 710.203125 C340.54527344 710.91984375 339.93039062 711.6365625 339.296875 712.375 C327.43943502 726.07189964 315.02782949 739.51176544 301.16015625 751.203125 C300.20625 752.04617188 299.25234375 752.88921875 298.26953125 753.7578125 C283.52001031 766.74471495 267.58638635 778.42672936 251.16015625 789.203125 C250.41314453 789.69458008 249.66613281 790.18603516 248.89648438 790.69238281 C185.74946819 831.86506756 108.09011668 858.10780624 32.3203125 858.40625 C30.53142105 858.41670349 30.53142105 858.41670349 28.70639038 858.42736816 C24.87844274 858.44467244 21.05064137 858.45108793 17.22265625 858.453125 C15.26539108 858.45463562 15.26539108 858.45463562 13.26858521 858.45617676 C-5.32177578 858.44644845 -23.44033049 858.01609836 -41.83984375 855.203125 C-43.90995411 854.92039099 -45.98026977 854.63915635 -48.05078125 854.359375 C-128.24820372 843.01204571 -203.71813649 806.90834049 -264.83984375 754.203125 C-265.91492188 753.28080078 -265.91492188 753.28080078 -267.01171875 752.33984375 C-280.70861839 740.48240377 -294.14848419 728.07079824 -305.83984375 714.203125 C-306.68289063 713.24921875 -307.5259375 712.2953125 -308.39453125 711.3125 C-321.3814337 696.56297906 -333.06344811 680.6293551 -343.83984375 664.203125 C-344.33129883 663.45611328 -344.82275391 662.70910156 -345.32910156 661.93945312 C-386.50178631 598.79243694 -412.74452499 521.13308543 -413.04296875 445.36328125 C-413.04993774 444.17068695 -413.05690674 442.97809265 -413.06408691 441.74935913 C-413.08139119 437.92141149 -413.08780668 434.09361012 -413.08984375 430.265625 C-413.09135437 428.30835983 -413.09135437 428.30835983 -413.09289551 426.31155396 C-413.0831672 407.72119297 -412.65281711 389.60263826 -409.83984375 371.203125 C-409.55710974 369.13301464 -409.2758751 367.06269898 -408.99609375 364.9921875 C-397.64876446 284.79476503 -361.54505924 209.32483226 -308.83984375 148.203125 C-308.22496094 147.48640625 -307.61007812 146.7696875 -306.9765625 146.03125 C-295.11912252 132.33435036 -282.70751699 118.89448456 -268.83984375 107.203125 C-267.8859375 106.36007813 -266.93203125 105.51703125 -265.94921875 104.6484375 C-251.19969781 91.66153505 -235.26607385 79.97952064 -218.83984375 69.203125 C-217.71932617 68.46594238 -217.71932617 68.46594238 -216.57617188 67.71386719 C-153.42915569 26.54118244 -75.76980418 0.29844376 0 0 Z " fill="#190C28" transform="translate(412.83984375,-0.203125)"/>
<path d="M0 0 C173.95872983 0 173.95872983 0 190.0625 4.1875 C191.30664673 4.50569702 191.30664673 4.50569702 192.57592773 4.83032227 C200.7981926 7.04082868 208.3757982 10.24680574 216 14 C216.98226562 14.47179687 217.96453125 14.94359375 218.9765625 15.4296875 C242.93868706 27.65244268 259.77491039 48.99662848 268.74707031 74.08935547 C270.1185482 78.33756616 271.11862835 82.62722796 272 87 C272.33451172 88.58167969 272.33451172 88.58167969 272.67578125 90.1953125 C275.45305029 105.87649144 275.34763879 123.45363558 272 139 C271.84934082 139.70366699 271.69868164 140.40733398 271.54345703 141.13232422 C264.71565328 172.04436945 247.55998568 200.7154572 220.9296875 218.58203125 C208.89085894 226.23215396 195.68449136 231.21395739 182 235 C180.68194198 235.37507542 179.36422213 235.75134161 178.046875 236.12890625 C177.04140625 236.41636719 176.0359375 236.70382812 175 237 C175.35078613 237.60134766 175.70157227 238.20269531 176.06298828 238.82226562 C176.56040527 239.67498047 177.05782227 240.52769531 177.5703125 241.40625 C178.12968506 242.36515137 178.68905762 243.32405273 179.26538086 244.31201172 C180.52408781 246.46984228 181.78271172 248.62772128 183.04125977 250.78564453 C186.19879625 256.19934667 189.35731168 261.61246876 192.51953125 267.0234375 C199.18037613 278.42464387 205.80353283 289.8467054 212.39428711 301.28857422 C216.57327623 308.53922037 220.77738823 315.77468179 225 323 C231.74713114 334.54722486 238.4333937 346.12902119 245.10888672 357.71777344 C248.23680147 363.1465994 251.36856046 368.57320669 254.5 374 C258.00644483 380.07716164 261.51274701 386.15440473 265.01696777 392.23284912 C266.02619104 393.98341241 267.03553836 395.73390411 268.04492188 397.484375 C269.3016766 399.66392165 270.55820586 401.84359832 271.81445312 404.0234375 C272.39130859 405.02375 272.96816406 406.0240625 273.5625 407.0546875 C274.40167969 408.51213379 274.40167969 408.51213379 275.2578125 409.99902344 C276.4911778 412.12353665 277.73725904 414.24069131 278.9921875 416.35253906 C279.63414062 417.4350293 280.27609375 418.51751953 280.9375 419.6328125 C281.52402344 420.6139502 282.11054688 421.59508789 282.71484375 422.60595703 C284 425 284 425 284 427 C264.86 427 245.72 427 226 427 C219.73046875 416.1328125 213.4609375 405.265625 207.19140625 394.3984375 C206.58119629 393.34076172 205.97098633 392.28308594 205.34228516 391.19335938 C204.1036034 389.04626722 202.86499788 386.89913107 201.62646484 384.75195312 C198.51445755 379.35705291 195.40117977 373.96289412 192.28515625 368.5703125 C185.49038436 356.80793427 178.72406844 345.02984493 171.99102783 333.23205566 C165.31714395 321.53932383 158.59477718 309.87488668 151.85888672 298.21777344 C149.98945924 294.98175371 148.12140745 291.74494423 146.25390625 288.5078125 C145.63338379 287.43225098 145.01286133 286.35668945 144.37353516 285.24853516 C143.13443739 283.10005524 141.89582262 280.95129667 140.65771484 278.80224609 C137.71633018 273.69851262 134.76917076 268.59836167 131.80252075 263.50927734 C130.39302963 261.09061686 128.98667235 258.67014138 127.58056641 256.24951172 C126.58021318 254.53043948 125.57530266 252.8140218 124.5703125 251.09765625 C123.67119141 249.54884766 123.67119141 249.54884766 122.75390625 247.96875 C122.22095947 247.05544922 121.6880127 246.14214844 121.13891602 245.20117188 C120 243 120 243 120 241 C97.23 241 74.46 241 51 241 C51 302.38 51 363.76 51 427 C34.17 427 17.34 427 0 427 C0 286.09 0 145.18 0 0 Z " fill="#FCFCFC" transform="translate(177,195)"/>
<path d="M0 0 C16.10019405 -0.07046404 32.20033714 -0.12316953 48.30064869 -0.15543652 C55.77836614 -0.17082502 63.25598711 -0.19175859 70.73364258 -0.22631836 C77.26048455 -0.25646902 83.78725656 -0.27563303 90.31416625 -0.28226548 C93.76167998 -0.28613491 97.20899379 -0.29505503 100.65644264 -0.31719017 C133.25362329 -0.50309273 164.69972658 3.4230199 190 26 C191.2065625 26.99386719 191.2065625 26.99386719 192.4375 28.0078125 C214.23434304 46.46701395 225.37524734 72.96010757 228 101 C230.10785979 127.99440675 221.37803991 155.28797281 204 176 C195.07044283 186.42060893 183.37435543 193.3260444 171 199 C172.01578125 199.42410156 173.0315625 199.84820312 174.078125 200.28515625 C202.55376776 212.34162808 223.94231683 231.23328857 235.87988281 260.12988281 C248.80401447 293.5656698 247.23411825 331.41067278 233.05761719 364.17822266 C221.45445909 389.2099578 200.64161868 408.08086754 175 418 C168.42318467 420.29656634 161.74271277 422.25411902 155 424 C154.28328125 424.18852539 153.5665625 424.37705078 152.828125 424.57128906 C137.57943372 428.29432835 121.16545841 427.41381046 105.553545 427.54844093 C101.41073344 427.58439778 97.26983208 427.63833317 93.12792969 427.73388672 C89.08736439 427.8267381 85.04849497 427.87535101 81.00692368 427.89283371 C79.47656004 427.90688788 77.9462535 427.93643866 76.41650772 427.98213577 C64.55337527 428.31985204 64.55337527 428.31985204 60.81977844 425.14753723 C59.24015202 422.82799503 58.09819023 420.57802769 57 418 C56.37730225 416.9473999 55.75460449 415.8947998 55.11303711 414.81030273 C54.5897583 413.86098877 54.06647949 412.9116748 53.52734375 411.93359375 C52.93759766 410.87076172 52.34785156 409.80792969 51.74023438 408.71289062 C50.84788086 407.09157227 50.84788086 407.09157227 49.9375 405.4375 C45.18810615 396.78309125 45.18810615 396.78309125 40.06640625 388.34765625 C38 385 38 385 38 383 C39.02047424 382.99635437 40.04094849 382.99270874 41.09234619 382.98895264 C50.79895494 382.95170581 60.50525509 382.89361674 70.21162796 382.81609726 C75.19952797 382.7769051 80.18725888 382.74458023 85.17529297 382.72900391 C90.00608208 382.71364833 94.83640536 382.67887829 99.66698456 382.63169098 C101.49252987 382.61706902 103.31814175 382.60897029 105.14374542 382.60811615 C130.00120967 382.58483131 153.59135352 378.12169381 172.390625 360.796875 C186.65710908 346.14218727 192.26482131 326.43873743 192.1784668 306.33447266 C191.88045582 285.06666475 185.09461323 266.14657403 170 251 C169.38511719 250.36191406 168.77023437 249.72382813 168.13671875 249.06640625 C156.63270568 238.00580268 138.19609948 231.95086406 122.45706177 231.84178162 C121.38021622 231.8319928 120.30337067 231.82220398 119.19389343 231.81211853 C118.0279213 231.80636307 116.86194916 231.8006076 115.66064453 231.79467773 C114.42106491 231.78477814 113.18148529 231.77487854 111.90434265 231.76467896 C108.51844753 231.73856706 105.13257503 231.71667395 101.74664164 231.69667697 C98.2032107 231.67474545 94.65982165 231.64739196 91.11642456 231.62062073 C84.41240474 231.57079042 77.70836154 231.52581593 71.00429618 231.48259836 C63.36945 231.43314319 55.73464587 231.37825587 48.0998404 231.32291877 C32.3999325 231.20924714 16.69998587 231.10237608 1 231 C1.94871811 229.88601462 2.8984625 228.77290323 3.84863281 227.66015625 C4.37741028 227.04019775 4.90618774 226.42023926 5.45098877 225.78149414 C7.47796121 223.45030412 9.61653038 221.23369973 11.75 219 C15.57940729 214.7911019 18.95270875 210.47247267 22.125 205.75 C22.49592773 205.2034375 22.86685547 204.656875 23.24902344 204.09375 C26.17169689 199.62289034 28.66557602 194.9431704 31.16357422 190.22753906 C31.71820595 189.18389694 31.71820595 189.18389694 32.28404236 188.11917114 C33.19040069 186.41333247 34.09534278 184.70674144 35 183 C36.49098961 182.99120064 36.49098961 182.99120064 38.01210022 182.98222351 C47.44062916 182.9246792 56.86893444 182.85175624 66.29723454 182.76428509 C71.14288184 182.71981005 75.98844948 182.68050544 80.83422852 182.65356445 C85.52229292 182.62730093 90.21004685 182.58674122 94.89791679 182.53681374 C96.674566 182.52029918 98.4512687 182.50869005 100.22798347 182.50238609 C121.67947361 182.41867273 140.44237175 179.10766528 156.9609375 164.234375 C170.9890778 149.63495296 175.61501975 128.38958668 175.26953125 108.80078125 C174.63112629 93.09224545 168.15203551 77.27846866 157.1796875 65.921875 C140.88145144 51.55138729 121.86458166 49.71410795 101.2109375 49.5859375 C99.29708036 49.56720197 97.38323127 49.54762683 95.46939087 49.5272522 C90.46198296 49.47617678 85.45454834 49.43642026 80.44702148 49.39910889 C75.32529222 49.35891412 70.2036717 49.30789277 65.08203125 49.2578125 C55.05476416 49.1613448 45.02743532 49.07684775 35 49 C34.72096329 48.4588002 34.44192657 47.9176004 34.1544342 47.36000061 C32.86939609 44.87424604 31.57733638 42.39220514 30.28515625 39.91015625 C29.84643188 39.05893188 29.40770752 38.20770752 28.95568848 37.33068848 C21.95011155 23.91114541 12.07804741 12.74641757 1.21484375 2.27734375 C0 1 0 1 0 0 Z " fill="#FCFCFC" transform="translate(443,195)"/>
<path d="M0 0 C25.183125 -0.0928125 25.183125 -0.0928125 50.875 -0.1875 C58.77348877 -0.22846802 58.77348877 -0.22846802 66.83154297 -0.27026367 C73.35180664 -0.28381348 73.35180664 -0.28381348 76.42166138 -0.28633118 C78.52755648 -0.2908835 80.63344467 -0.30131894 82.73928833 -0.31672668 C107.91726152 -0.49144515 133.48281478 1.35970402 152.71484375 19.5859375 C165.55282218 33.14810959 170.60202895 49.93890272 170.375 68.3125 C170.36557373 69.49658447 170.35614746 70.68066895 170.34643555 71.90063477 C169.99961707 92.05065003 164.40089535 109.48212504 150.6875 124.5390625 C129.93250168 144.40651155 103.65964307 145.33231875 76.5625 145.1953125 C74.59310012 145.19236369 72.62369865 145.19032843 70.65429688 145.18920898 C63.43617366 145.17881875 56.21808423 145.15089673 49 145.125 C24.745 145.063125 24.745 145.063125 0 145 C0 97.15 0 49.3 0 0 Z " fill="#190C28" transform="translate(228,244)"/>
<path d="M0 0 C0.66 0.66 1.32 1.32 2 2 C3.92222221 2.29719111 3.92222221 2.29719111 6.15078735 2.24050903 C7.45489815 2.24463303 7.45489815 2.24463303 8.78535461 2.24884033 C9.74129013 2.24164978 10.69722565 2.23445923 11.68212891 2.22705078 C12.68703873 2.22734283 13.69194855 2.22763489 14.72731018 2.22793579 C18.06048107 2.22653856 21.39343049 2.21095882 24.7265625 2.1953125 C27.03298826 2.19158377 29.3394156 2.18873614 31.64584351 2.18673706 C37.72534536 2.17908959 43.80475211 2.15943154 49.88421631 2.1373291 C56.08425612 2.11689463 62.28431125 2.10774048 68.484375 2.09765625 C80.65629185 2.0761867 92.82813803 2.04203735 105 2 C105 2.33 105 2.66 105 3 C71.34 3 37.68 3 3 3 C3 48.87 3 94.74 3 142 C36.33 142 69.66 142 104 142 C99.5 145.375 99.5 145.375 95.72259521 145.36076355 C94.87743221 145.36489604 94.03226921 145.36902853 93.16149521 145.37328625 C92.2390514 145.36249192 91.31660759 145.3516976 90.36621094 145.34057617 C89.37451023 145.34093778 88.38280952 145.34129938 87.36105728 145.34167194 C84.15195761 145.33943333 80.94338112 145.31658982 77.734375 145.29296875 C75.75276949 145.28855775 73.77116049 145.2854973 71.78955078 145.28381348 C64.44298054 145.26808661 57.09648513 145.22620297 49.75 145.1875 C33.3325 145.125625 16.915 145.06375 0 145 C0 97.15 0 49.3 0 0 Z " fill="#241C2E" transform="translate(228,244)"/>
<path d="M0 0 C5.16897641 1.51912665 8.4291497 4.75649251 12.25 8.375 C12.90806641 8.99479736 13.56613281 9.61459473 14.24414062 10.25317383 C19.77202079 15.57152076 25.2585255 21.24576841 29 28 C28.67 28.99 28.34 29.98 28 31 C27.53851562 30.33355469 27.07703125 29.66710937 26.6015625 28.98046875 C19.43493345 18.8537103 11.77262512 9.95167124 1.8359375 2.4609375 C1.23007812 1.97882813 0.62421875 1.49671875 0 1 C0 0.67 0 0.34 0 0 Z " fill="#0D0B0F" transform="translate(626,215)"/>
<path d="M0 0 C0.33 0 0.66 0 1 0 C1 3.3 1 6.6 1 10 C1.33 10 1.66 10 2 10 C2.04254356 11.99954746 2.04080783 14.00041636 2 16 C1.67 16.33 1.34 16.66 1 17 C0.95919217 18.99958364 0.95745644 21.00045254 1 23 C0.34 23 -0.32 23 -1 23 C-1.66 23.99 -2.32 24.98 -3 26 C-2.50610812 17.21392344 -1.63177319 8.64998215 0 0 Z " fill="#85808A" transform="translate(6,352)"/>
<path d="M0 0 C0.99 0 1.98 0 3 0 C3.09765625 6.15234375 3.09765625 6.15234375 3 8 C2.67 8.33 2.34 8.66 2 9 C1.76712992 10.68183948 1.58735834 12.3712416 1.4375 14.0625 C1.35371094 14.98160156 1.26992188 15.90070313 1.18359375 16.84765625 C1.12300781 17.55792969 1.06242188 18.26820313 1 19 C0.67 19 0.34 19 0 19 C0 12.73 0 6.46 0 0 Z " fill="#271D34" transform="translate(616,299)"/>
<path d="M0 0 C0.66 0 1.32 0 2 0 C2.98248524 4.0527516 3.08159574 7.83861737 3 12 C2.01 11.67 1.02 11.34 0 11 C-0.19406478 9.35492782 -0.38007935 7.70890406 -0.5625 6.0625 C-0.66691406 5.14597656 -0.77132812 4.22945313 -0.87890625 3.28515625 C-0.91886719 2.53105469 -0.95882812 1.77695312 -1 1 C-0.67 0.67 -0.34 0.34 0 0 Z " fill="#261F2F" transform="translate(686,478)"/>
<path d="M0 0 C2.40784074 3.39930457 2.02728742 6.16581783 1.58203125 10.09765625 C0.8761236 12.40488463 -0.19634015 13.43942099 -2 15 C-1.03644647 4.44191344 -1.03644647 4.44191344 0 0 Z " fill="#7D7C7F" transform="translate(9,337)"/>
<path d="M0 0 C2.97 0 5.94 0 9 0 C9 0.99 9 1.98 9 3 C5.7 3 2.4 3 -1 3 C-0.67 2.01 -0.34 1.02 0 0 Z M-5 3 C-1 4 -1 4 -1 4 Z " fill="#281E33" transform="translate(577,621)"/>
<path d="M0 0 C0.66 0 1.32 0 2 0 C5 5.75 5 5.75 5 8 C4.01 8 3.02 8 2 8 C1.01 5.69 0.02 3.38 -1 1 C-0.67 0.67 -0.34 0.34 0 0 Z " fill="#1E1826" transform="translate(438,250)"/>
<path d="M0 0 C2.01136276 2.55991624 3.62845496 5.04590299 5 8 C4.34 8.66 3.68 9.32 3 10 C-0.22265625 4.82421875 -0.22265625 4.82421875 -1 3 C-0.67 2.01 -0.34 1.02 0 0 Z " fill="#39373D" transform="translate(53,633)"/>
<path d="M0 0 C0.99 0.33 1.98 0.66 3 1 C3.33 3.97 3.66 6.94 4 10 C0 4 0 4 0 0 Z " fill="#727074" transform="translate(31,589)"/>
<path d="M0 0 C0.99 0.33 1.98 0.66 3 1 C4.1875 3.5625 4.1875 3.5625 5 6 C4.34 6.66 3.68 7.32 3 8 C0 2.25 0 2.25 0 0 Z " fill="#58575B" transform="translate(38,606)"/>
<path d="M0 0 C0.93423645 3.01031744 1.04449911 3.86650268 0 7 C-0.66 7 -1.32 7 -2 7 C-2.33 7.66 -2.66 8.32 -3 9 C-2.5020163 5.26512223 -2.12508244 3.18762365 0 0 Z " fill="#535255" transform="translate(17,310)"/>
</svg>
